<mxfile host="app.diagrams.net" modified="2020-09-14T16:44:05.724Z" agent="5.0 (Windows NT 10.0; Win64; x64) AppleWebKit/537.36 (KHTML, like Gecko) Chrome/85.0.4183.102 Safari/537.36" etag="fn0PNRMIgODTloOXV8zw" version="13.6.10" type="github">
  <diagram id="C5RBs43oDa-KdzZeNtuy" name="Page-1">
    <mxGraphModel dx="1673" dy="908" grid="1" gridSize="10" guides="1" tooltips="1" connect="1" arrows="1" fold="1" page="1" pageScale="1" pageWidth="827" pageHeight="1169" math="0" shadow="0">
      <root>
        <mxCell id="WIyWlLk6GJQsqaUBKTNV-0" />
        <mxCell id="WIyWlLk6GJQsqaUBKTNV-1" parent="WIyWlLk6GJQsqaUBKTNV-0" />
        <mxCell id="BQzZUxu0mraWKCZK7FuD-2" value="&lt;p style=&quot;margin: 0px ; margin-top: 4px ; text-align: center&quot;&gt;&lt;i&gt;&amp;lt;&amp;lt;Interface&amp;gt;&amp;gt;&amp;nbsp;&lt;/i&gt;&lt;b&gt;Movable&lt;/b&gt;&lt;/p&gt;&lt;br&gt;&lt;hr size=&quot;1&quot;&gt;&lt;p style=&quot;margin: 0px ; margin-left: 4px&quot;&gt;+ moveUp(): void&lt;br&gt;+ moveDown(): void&lt;/p&gt;&lt;p style=&quot;margin: 0px ; margin-left: 4px&quot;&gt;+ moveLeft(): void&lt;/p&gt;&lt;p style=&quot;margin: 0px ; margin-left: 4px&quot;&gt;+ moveRight(): void&lt;/p&gt;" style="verticalAlign=top;align=left;overflow=fill;fontSize=12;fontFamily=Helvetica;html=1;" vertex="1" parent="WIyWlLk6GJQsqaUBKTNV-1">
          <mxGeometry x="319" y="40" width="190" height="110" as="geometry" />
        </mxCell>
        <mxCell id="BQzZUxu0mraWKCZK7FuD-9" style="edgeStyle=orthogonalEdgeStyle;rounded=0;orthogonalLoop=1;jettySize=auto;html=1;exitX=0.5;exitY=0;exitDx=0;exitDy=0;entryX=0.5;entryY=1;entryDx=0;entryDy=0;dashed=1;endArrow=block;endFill=0;endSize=9;" edge="1" parent="WIyWlLk6GJQsqaUBKTNV-1" source="BQzZUxu0mraWKCZK7FuD-3" target="BQzZUxu0mraWKCZK7FuD-2">
          <mxGeometry relative="1" as="geometry" />
        </mxCell>
        <mxCell id="BQzZUxu0mraWKCZK7FuD-3" value="MovablePoint" style="swimlane;fontStyle=1;align=center;verticalAlign=top;childLayout=stackLayout;horizontal=1;startSize=26;horizontalStack=0;resizeParent=1;resizeParentMax=0;resizeLast=0;collapsible=1;marginBottom=0;" vertex="1" parent="WIyWlLk6GJQsqaUBKTNV-1">
          <mxGeometry x="80" y="220" width="180" height="210" as="geometry" />
        </mxCell>
        <mxCell id="BQzZUxu0mraWKCZK7FuD-4" value="~x: int&#xa;~y: int&#xa;~xSpeed: int&#xa;~ySpeed: int" style="text;strokeColor=none;fillColor=none;align=left;verticalAlign=top;spacingLeft=4;spacingRight=4;overflow=hidden;rotatable=0;points=[[0,0.5],[1,0.5]];portConstraint=eastwest;" vertex="1" parent="BQzZUxu0mraWKCZK7FuD-3">
          <mxGeometry y="26" width="180" height="64" as="geometry" />
        </mxCell>
        <mxCell id="BQzZUxu0mraWKCZK7FuD-5" value="" style="line;strokeWidth=1;fillColor=none;align=left;verticalAlign=middle;spacingTop=-1;spacingLeft=3;spacingRight=3;rotatable=0;labelPosition=right;points=[];portConstraint=eastwest;" vertex="1" parent="BQzZUxu0mraWKCZK7FuD-3">
          <mxGeometry y="90" width="180" height="8" as="geometry" />
        </mxCell>
        <mxCell id="BQzZUxu0mraWKCZK7FuD-6" value="+ MovablePoint(x: int, y: int,&#xa; xSpeed: int, ySpeed: int)&#xa;+ toString: String&#xa;+ moveUp: void&#xa;+ moveDown: void&#xa;+ moveLeft: void&#xa;+ moveRight: void" style="text;strokeColor=none;fillColor=none;align=left;verticalAlign=top;spacingLeft=4;spacingRight=4;overflow=hidden;rotatable=0;points=[[0,0.5],[1,0.5]];portConstraint=eastwest;" vertex="1" parent="BQzZUxu0mraWKCZK7FuD-3">
          <mxGeometry y="98" width="180" height="112" as="geometry" />
        </mxCell>
        <mxCell id="BQzZUxu0mraWKCZK7FuD-10" value="Rectangle" style="swimlane;fontStyle=1;align=center;verticalAlign=top;childLayout=stackLayout;horizontal=1;startSize=26;horizontalStack=0;resizeParent=1;resizeParentMax=0;resizeLast=0;collapsible=1;marginBottom=0;" vertex="1" parent="WIyWlLk6GJQsqaUBKTNV-1">
          <mxGeometry x="540" y="250" width="240" height="256" as="geometry" />
        </mxCell>
        <mxCell id="BQzZUxu0mraWKCZK7FuD-11" value="# width: double&#xa;#length: double" style="text;strokeColor=none;fillColor=none;align=left;verticalAlign=top;spacingLeft=4;spacingRight=4;overflow=hidden;rotatable=0;points=[[0,0.5],[1,0.5]];portConstraint=eastwest;" vertex="1" parent="BQzZUxu0mraWKCZK7FuD-10">
          <mxGeometry y="26" width="240" height="44" as="geometry" />
        </mxCell>
        <mxCell id="BQzZUxu0mraWKCZK7FuD-12" value="" style="line;strokeWidth=1;fillColor=none;align=left;verticalAlign=middle;spacingTop=-1;spacingLeft=3;spacingRight=3;rotatable=0;labelPosition=right;points=[];portConstraint=eastwest;" vertex="1" parent="BQzZUxu0mraWKCZK7FuD-10">
          <mxGeometry y="70" width="240" height="8" as="geometry" />
        </mxCell>
        <mxCell id="BQzZUxu0mraWKCZK7FuD-13" value="+ Rectangle()&#xa;+ Rectangle(width: double, length: double)&#xa;+ Rectangle(width: double, length: double,&#xa;         color: String, filled: boolean)&#xa;+ getWidth(): double&#xa;+ setWidth(width: double): void&#xa;+ getLength(): double&#xa;+ setLength(length: double): void&#xa;+ getArea(): double&#xa;+ getPerimeter(): double&#xa;+ toString(): String" style="text;strokeColor=none;fillColor=none;align=left;verticalAlign=top;spacingLeft=4;spacingRight=4;overflow=hidden;rotatable=0;points=[[0,0.5],[1,0.5]];portConstraint=eastwest;" vertex="1" parent="BQzZUxu0mraWKCZK7FuD-10">
          <mxGeometry y="78" width="240" height="178" as="geometry" />
        </mxCell>
        <mxCell id="BQzZUxu0mraWKCZK7FuD-18" style="edgeStyle=orthogonalEdgeStyle;rounded=0;orthogonalLoop=1;jettySize=auto;html=1;exitX=0.5;exitY=0;exitDx=0;exitDy=0;entryX=0.529;entryY=1.012;entryDx=0;entryDy=0;entryPerimeter=0;endArrow=block;endFill=0;endSize=8;" edge="1" parent="WIyWlLk6GJQsqaUBKTNV-1" source="BQzZUxu0mraWKCZK7FuD-14" target="BQzZUxu0mraWKCZK7FuD-13">
          <mxGeometry relative="1" as="geometry">
            <Array as="points">
              <mxPoint x="414" y="540" />
              <mxPoint x="667" y="540" />
            </Array>
          </mxGeometry>
        </mxCell>
        <mxCell id="BQzZUxu0mraWKCZK7FuD-19" style="edgeStyle=orthogonalEdgeStyle;rounded=0;orthogonalLoop=1;jettySize=auto;html=1;exitX=0.5;exitY=0;exitDx=0;exitDy=0;entryX=0.5;entryY=1;entryDx=0;entryDy=0;endArrow=block;endFill=0;dashed=1;endSize=9;" edge="1" parent="WIyWlLk6GJQsqaUBKTNV-1" source="BQzZUxu0mraWKCZK7FuD-14" target="BQzZUxu0mraWKCZK7FuD-2">
          <mxGeometry relative="1" as="geometry" />
        </mxCell>
        <mxCell id="BQzZUxu0mraWKCZK7FuD-20" style="edgeStyle=orthogonalEdgeStyle;rounded=0;orthogonalLoop=1;jettySize=auto;html=1;exitX=0.5;exitY=0;exitDx=0;exitDy=0;endArrow=diamondThin;endFill=0;entryX=0.439;entryY=1;entryDx=0;entryDy=0;entryPerimeter=0;strokeWidth=1;endSize=13;" edge="1" parent="WIyWlLk6GJQsqaUBKTNV-1" source="BQzZUxu0mraWKCZK7FuD-14" target="BQzZUxu0mraWKCZK7FuD-6">
          <mxGeometry relative="1" as="geometry">
            <mxPoint x="160" y="440" as="targetPoint" />
            <Array as="points">
              <mxPoint x="414" y="540" />
              <mxPoint x="159" y="540" />
            </Array>
          </mxGeometry>
        </mxCell>
        <mxCell id="BQzZUxu0mraWKCZK7FuD-14" value="MovableRectangle" style="swimlane;fontStyle=1;align=center;verticalAlign=top;childLayout=stackLayout;horizontal=1;startSize=26;horizontalStack=0;resizeParent=1;resizeParentMax=0;resizeLast=0;collapsible=1;marginBottom=0;" vertex="1" parent="WIyWlLk6GJQsqaUBKTNV-1">
          <mxGeometry x="309" y="585" width="210" height="170" as="geometry" />
        </mxCell>
        <mxCell id="BQzZUxu0mraWKCZK7FuD-15" value="# upperLeft: MovablePoint&#xa;# lowerRight: MovablePoint" style="text;strokeColor=none;fillColor=none;align=left;verticalAlign=top;spacingLeft=4;spacingRight=4;overflow=hidden;rotatable=0;points=[[0,0.5],[1,0.5]];portConstraint=eastwest;" vertex="1" parent="BQzZUxu0mraWKCZK7FuD-14">
          <mxGeometry y="26" width="210" height="34" as="geometry" />
        </mxCell>
        <mxCell id="BQzZUxu0mraWKCZK7FuD-16" value="" style="line;strokeWidth=1;fillColor=none;align=left;verticalAlign=middle;spacingTop=-1;spacingLeft=3;spacingRight=3;rotatable=0;labelPosition=right;points=[];portConstraint=eastwest;" vertex="1" parent="BQzZUxu0mraWKCZK7FuD-14">
          <mxGeometry y="60" width="210" height="8" as="geometry" />
        </mxCell>
        <mxCell id="BQzZUxu0mraWKCZK7FuD-17" value="MovableRectangle(u: MovablePoint,&#xa;        l: MovablePoint)&#xa;+ moveUp: void&#xa;+ moveDown: void&#xa;+ moveLeft: void&#xa;+ moveRight: void" style="text;strokeColor=none;fillColor=none;align=left;verticalAlign=top;spacingLeft=4;spacingRight=4;overflow=hidden;rotatable=0;points=[[0,0.5],[1,0.5]];portConstraint=eastwest;" vertex="1" parent="BQzZUxu0mraWKCZK7FuD-14">
          <mxGeometry y="68" width="210" height="102" as="geometry" />
        </mxCell>
      </root>
    </mxGraphModel>
  </diagram>
</mxfile>
